{"title":"The Siege at Ruby Ridge (1996) Laura Dern (DVDrip, opt.subs)","uid":4691539,"size":736445607,"categoryP":"video","categoryS":"movies","magnet":"?xt=urn:btih:bccf81f60e6ec8b468ae752fa0d3502f2cd3b0b1&amp;dn=The+Siege+at+Ruby+Ridge+%281996%29+Laura+Dern+%28DVDrip%2C+opt.subs%29&amp;tr=udp%3A%2F%2Ftracker.openbittorrent.com%3A80&amp;tr=udp%3A%2F%2Fopen.demonii.com%3A1337&amp;tr=udp%3A%2F%2Ftracker.coppersurfer.tk%3A6969&amp;tr=udp%3A%2F%2Fexodus.desync.com%3A6969","seeders":1,"leechers":0,"uploader":"Kuthumi","files":-1,"time":1233411767,"description":" &lt;a href=&quot;http://www.imdb.com/title/tt0117523/&quot; rel=&quot;nofollow&quot; target=&quot;_NEW&quot;&gt;http://www.imdb.com/title/tt0117523/&lt;/a&gt;\n\nWith Laura Dern, Randy Quaid and a very young Kirsten Dunst (then only 14).\n\nOptional subtitles in idx/sub files: English, French.\n\nTrue story of the controversial 1992 attack by federal agents on an Idaho sect family. The incident caused major public outcry against the FBI and U.S. Marshals.\n\nThis film changes angels several times. In the beginning, we may suspect Christian fundamentalist propaganda until we understand that the purpose is to disclose such fanatism. Then our sympathy starts to build up for this family whose members just want to live in peace according to their own doomsday faith - until their Armageddon is manifested by the FBI. The court hearing at the end is simply fabulous.\n\nMy new ripping procedure now produces decent quality for such a long film (2x90 min) compressed into just 700 MiB. I enclose a sample for ye weak in faith. Believe me, the DVD picture quality is not much better than this. \n\nOriginal fullscreen, DVDrip XviD 2-pass 608x448, good stereo sound AC3.\nBurn tested, runs well in both my standalone DivX players.\n\nFormat/Info                      : Audio Video Interleave\nFile size                        : 687 MiB\nDuration                         : 2h 57mn\nOveral bit rate                  : 540 Kbps\n\nVideo\nFormat                           : MPEG-4 Visual\nFormat profile                   : Streaming Video@L1\nFormat settings, BVOP            : Yes\nFormat settings, QPel            : No\nFormat settings, GMC             : No warppoints\nFormat settings, Matrix          : Default\nMuxing mode                      : Packet Bitstream\nCodec ID                         : XVID\nCodec ID/Hint                    : XviD\nDuration                         : 2h 57mn\nBit rate                         : 403 Kbps\nWidth                            : 608 pixels\nHeight                           : 448 pixels\nDisplay aspect ratio             : 4/3\nFrame rate                       : 23.976 fps\nResolution                       : 8 bits\nColorimetry                      : 4:2:0\nScan type                        : Progressive\nBits/(Pixel*Frame)               : 0.062\nStream size                      : 513 MiB\nWriting library                  : XviD 1.2.0.dev47 (UTC 2006-11-01)\n\nAudio\nFormat                           : MPEG Audio\nFormat version                   : Version 1\nFormat profile                   : Layer 3\nCodec ID                         : 55\nCodec ID/Hint                    : MP3\nDuration                         : 2h 57mn\nBit rate mode                    : Constant\nBit rate                         : 128 Kbps\nMinimum bit rate                 : 128 Kbps\nChannel(s)                       : 2 channels\nSampling rate                    : 48.0 KHz\nResolution                       : 16 bits\nStream size                      : 163 MiB\nWriting library                  : LAME3.97 \nEncoding settings                : CBR\n\nSource: NTSC IVTC 6.71 GiB (note that PAL/NTSC will give no problems for avi files)","torrent":{"xt":"urn:btih:bccf81f60e6ec8b468ae752fa0d3502f2cd3b0b1","amp;dn":"The+Siege+at+Ruby+Ridge+%281996%29+Laura+Dern+%28DVDrip%2C+opt.subs%29","amp;tr":["udp%3A%2F%2Ftracker.openbittorrent.com%3A80","udp%3A%2F%2Fopen.demonii.com%3A1337","udp%3A%2F%2Ftracker.coppersurfer.tk%3A6969","udp%3A%2F%2Fexodus.desync.com%3A6969"],"infoHash":"bccf81f60e6ec8b468ae752fa0d3502f2cd3b0b1","infoHashBuffer":{"type":"Buffer","data":[188,207,129,246,14,110,200,180,104,174,117,47,160,211,80,47,44,211,176,177]},"announce":[],"urlList":[]}}